<?xml version="1.0" encoding="UTF-8" standalone="no"?>
<svg
   class="img-fluid"
   width="750"
   height="300"
   viewBox="0 0 5370 2150"
   version="1.1"
   id="svg5"
   xmlns="http://www.w3.org/2000/svg"
   xmlns:svg="http://www.w3.org/2000/svg">
  <defs
     id="defs5" />
  <g
     id="g5">
    <path
       d="m 4170,2034 c -138,-24 -233,-54 -282,-88 -21,-15 -2,-16 258,-16 334,0 645,10 639,21 -6,9 -112,45 -193,66 -55,14 -368,27 -422,17 z M 110,1998 c 0,-13 3,-33 6,-45 6,-23 6,-23 557,-23 599,0 614,2 419,49 -133,32 -273,41 -649,41 -333,0 -333,0 -333,-22 z m 1610,16 c 0,-4 10,-24 22,-45 22,-39 22,-39 225,-39 124,0 203,4 203,10 0,5 -8,25 -17,45 -17,35 -17,35 -225,35 -114,0 -208,-3 -208,-6 z m 1378,-39 c -3,-45 -3,-45 203,-45 207,0 207,0 213,28 4,15 9,35 12,45 5,16 -10,17 -209,17 -215,0 -215,0 -219,-45 z M 136,1843 c 3,-27 9,-51 13,-55 8,-9 442,-14 939,-10 394,2 394,2 351,38 -95,79 -47,74 -714,74 -596,0 -596,0 -589,-47 z m 1673,-10 c 31,-58 31,-58 233,-55 112,2 204,5 206,7 2,1 -8,26 -22,54 -26,51 -26,51 -237,51 h -210 z m 1267,20 c -13,-79 -29,-73 198,-73 113,0 207,3 209,8 3,4 8,28 11,55 7,47 7,47 -202,47 -209,0 -209,0 -216,-37 z m 684,-15 c -42,-53 -42,-53 67,-61 59,-4 207,-5 328,-2 121,3 319,6 440,7 121,0 261,3 310,7 90,7 90,7 48,47 -43,41 -43,41 -305,47 -145,4 -394,7 -555,7 -291,0 -291,0 -333,-52 z M 163,1685 c 5,-27 9,-51 10,-51 1,-1 88,-5 194,-9 191,-7 191,-7 195,21 3,29 3,29 188,29 143,-1 199,-5 247,-18 44,-12 115,-19 250,-22 103,-3 233,-8 287,-11 99,-6 99,-6 78,24 -12,16 -38,44 -57,61 -36,31 -36,31 -719,29 -682,-3 -682,-3 -673,-53 z m 1725,46 c -28,-6 -28,-6 2,-57 29,-52 29,-52 157,-48 70,3 161,7 200,10 72,6 72,6 48,55 -25,49 -25,49 -203,48 -97,-1 -189,-4 -204,-8 z m 1168,-13 c -3,-13 -6,-40 -6,-60 0,-37 0,-37 153,-32 83,3 175,7 203,10 52,5 52,5 61,55 10,49 10,49 -197,49 -207,0 -208,0 -214,-22 z m 634,2 c -5,-9 -11,-31 -15,-51 -7,-36 -7,-36 122,-42 234,-12 308,-10 327,12 26,29 109,61 181,70 94,11 192,-3 273,-38 39,-17 75.3605,-29.1359 80,-31 23.0151,-9.2474 28.3676,-17.4388 52,-9 19,6 113,13 208,16 94,3 172,8 172,12 0,3 -12,24 -26,45 -26,38 -26,38 -138,30 -61,-5 -138,-8 -171,-7 -33,1 -284,4 -558,5 -438,3 -500,1 -507,-12 z M 1172,1592 c 2,-4 26,-28 54,-54 50,-47 50,-47 230,-58 98,-5 201,-12 227,-15 48,-4 48,-4 17,54 -32,59 -32,59 -228,65 -108,3 -221,8 -250,10 -29,3 -52,2 -50,-2 z m 965,-3 c -104,-4 -190,-9 -192,-11 -2,-2 10,-28 26,-57 31,-53 31,-53 77,-47 134,17 382,17 641,1 267,-16 462,-13 688,11 54,6 55,6 68,70 6,31 6,31 -542,30 -301,-1 -555,2 -563,5 -8,3 -100,2 -203,-2 z m 2748,4 c -27,-1 -78,-5 -112,-9 -61,-5 -61,-5 -40,-52 24,-54 -4,-50 265,-36 152,7 150,7 131,61 -9,27 -16,31 -62,37 -51,6 -79,6 -182,-1 z M 186,1543 c 4,-26 11,-51 16,-54 6,-4 76,-9 156,-13 81,-4 166,-9 189,-12 42,-6 42,-6 36,47 -3,30 -8,57 -12,60 -3,4 -93,10 -199,13 -193,7 -193,7 -186,-41 z m 3474,-2 c 0,-39 4,-51 18,-55 9,-2 85,-7 167,-11 83,-3 160.6797,-9.6014 175,-11 23.1081,-2.1532 26,-1 28,23 1,15 7,41 13,56 7,15 11.5945,27.8967 8,31 -12.6668,10.9358 -95,6 -206,10 -203,6 -203,6 -203,-43 z m -2340,-98 c 0,-2 12,-25 27,-51 15,-26 27,-48 28,-49 2,-5 406,-36 410,-31 7,6 -13,71 -27,91 -11,13 -45,18 -188,27 -96,5 -192,12 -212,14 -21,2 -38,2 -38,-1 z m 835,-5 c -71,-5 -132,-11 -133,-13 -2,-2 9,-27 24,-55 26,-48 30,-51 59,-46 97,18 431,17 670,-2 239,-19 258,-19 437,-3 102,9 188,18 191,21 2,3 8,27 12,54 7,49 7,49 -97,43 -276,-18 -413,-19 -650,-3 -268,17 -318,18 -513,4 z m 2740,-1 c -140,-10 -140,-10 -161,-53 -21,-44 -21,-44 20,-37 76,13 367.4205,0.7452 378,-5 19.879,-5.4625 17.7335,-5.9144 21,10 1.9363,13.6879 4,40 0,61 -6,37 -6,37 -62,35 -31,-1 -119,-6 -196,-11 z M 210,1395 c 4,-25 9,-47 12,-50 4,-5 320,-35 369,-35 25,0 25,1 19,50 -3,27 -8,52 -11,54 -4,5 -300,26 -359,26 -37,0 -37,0 -30,-45 z m 4670,-96 c -47,-4 -116,-6 -155,-3 -52,4 -82,1 -115,-11 -25,-10 -99,-32 -165,-50 -66,-18 -158,-43 -205,-56 -85,-24 -85,-24 -32,-27 30,-2 133,6 230,17 420,48 488,53 566,47 44,-4 84.0854,-12.3685 91,-16 15.0288,-7.893 33.1911,34.2422 43.4395,70.446 C 5142.3312,1287.0763 5044,1317 4880,1299 Z M 231,1277 c 1,-12 4,-35 8,-52 6,-30 6,-30 201,-51 107,-11 196,-20 197,-19 1,0 -1,26 -4,58 -6,57 -6,57 -58,57 -45,0 -188,11 -307,24 -34,4 -38,2 -37,-17 z m 2098.1472,15.7535 c -5,-2 -88.1472,-4.7535 -141.1472,-7.7535 -97,-7 -97,-7 -77,-48 33,-66 27,-64 156,-50 65,6 153,12 196,12 78,1 72.7702,-3.4913 67.6464,26.4123 -8.8713,32.8226 -23.9635,58.2755 -35.3461,65.8456 -39.9302,9.21 -152.1738,3.0774 -166.1531,1.4956 z M 1404,1278 c 2,-7 10,-29 16,-49 12,-35 12,-35 174,-52 88,-10 180,-20 204,-24 42,-5 42,-5 32,21 -5,15 -10,38 -10,52 0,35 -22,41 -210,53 -207,14 -213,14 -206,-1 z m 1759,-6 c -183,-15 -183,-15 -183,-46 0,-17 -3,-42 -7,-55 -6,-24 -6,-24 118,-18 68,3 161,11 205,18 82,12 82,12 88,48 10,62 8,71 -16,70 -13,-1 -105,-9 -205,-17 z m -843,-127 c -63,-8 -123,-14 -133,-14 -16,-1 -15,-6 8,-52 26,-51 26,-51 68,-45 23,3 110,9 194,12 152,7 152,7 128,54 -33,66 -51,69 -265,45 z m 2225,-12 c -110,-12 -264,-22 -343,-23 -132,0 -145,-2 -180,-24 -38,-24 -68,-53 -61,-60 2,-2 70,-12 150,-22 146,-17 146,-17 370,14 123,18 289,35 368,39 145,6 145,6 189,47 43,39 43,40 20,49 -39,14 -302,4 -513,-20 z m -4288,10 c -8,-15 5,-85 17,-88 18,-7 389,-55 393,-51 4,3 -13,95 -19,101 -2,3 -362,45 -384,45 -1,0 -5,-3 -7,-7 z m 1194,-14 c 1,-13 4,-37 8,-54 6,-29 6,-29 141,-47 74,-9 164,-20 199,-24 64,-7 64,-7 58,17 -4,13 -7,38 -7,54 0,31 0,31 -187,49 -104,10 -194,21 -200,23 -8,3 -13,-3 -12,-18 z m 1809,-9 c -30,-5 -110,-8 -177,-9 -68,-1 -123,-4 -124,-8 -1,-18 -9,-73 -11,-85 -5,-22 107,-32 232,-18 171,18 167,16 175,59 3,20 8,44 11,54 6,19 -9,20 -106,7 z m -850,-116 c -82,-12 -160,-26 -160,-30 0,-2 10,-24 22,-49 13,-28 25.4894,-42.59013 35,-41 33,13 236,27 301,21 39,-4 72,-4 72,-1 0,3 -10,25 -22,50 -16,34 -28,46 -51,50 -31,6 -153,6 -197,0 z"
       id="path1" />
    <path
       d="m 4700,1000 c -25,-4 -97,-15 -160,-25 -142,-23 -376,-25 -519,-6 -65,9 -109,11 -118,5 -20,-13 -49,-62 -40,-70 4,-4 84,-20 179,-36 176,-29 329,-38 351,-20 6,6 95,31 197,57 150,39 290,86 290,98 0,6 -140,4 -180,-3 z M 284,958 c 9,-56 11,-58 56,-58 21,0 106,-12 190,-26 84,-14 154,-24 156,-22 2,2 1,28 -3,56 -6,52 -6,52 -42,52 -20,0 -94,9 -166,20 -72,11 -145,20 -164,20 -34,0 -34,0 -27,-42 z m 1189,12 c 4,-18 7,-41 7,-51 0,-14 7,-19 28,-19 15,0 94,-11 176,-25 83,-14 157,-25 166,-25 13,0 16,11 16,50 0,59 18,51 -176,75 -74,9 -155,19 -179,22 -44,6 -44,6 -38,-27 z m 1772,-11 c -33,-5 -116,-8 -185,-7 -125,3 -125,3 -131,-42 -4,-25 -5,-46 -4,-48 1,-1 51,-9 111,-16 87,-11 126,-12 193,-3 85,12 85,12 98,62 7,28 13,53 13,58 0,8 -13,8 -95,-4 z m -725,-95 c -14,-2 -62,-9 -107,-16 -91,-12 -93,-15 -66,-73 17,-35 17,-36 63,-28 25,4 111,8 193,8 81,0 147,4 147,8 0,4 -9,25 -20,47 -18,35 -25,39 -67,45 -83,11 -117,13 -143,9 z M 305,818 c 4,-24 9,-46 11,-49 2,-4 37,-10 76,-14 40,-4 125,-18 188,-31 147,-30 144,-30 135,4 -4,15 -9,35 -9,44 -1,10 -4,20 -7,22 -5,5 -360,66 -384,66 -14,0 -16,-7 -10,-42 z m 1175,15 c 0,-16 -3,-38 -6,-49 -5,-20 -1,-22 70,-29 41,-3 126,-17 188,-30 84,-17 115,-20 120,-12 10,16 10,87 0,87 -4,0 -87,14 -185,30 -98,17 -180,30 -183,30 -2,0 -4,-12 -4,-27 z m 2356,-24 c -4,-23 -5,-44 -2,-46 2,-3 35,-9 73,-14 37,-4 123,-20 191,-34 149,-30 152,-30 152,-4 0,11 9,34 20,49 20,29 20,29 -37,35 -102,11 -206,26 -287,41 -105,19 -103,20 -110,-27 z m -926,-27 c 0,-17 -3,-37 -6,-45 -11,-29 289,-71 362,-51 14,4 24,16 27,37 4,18 9,42 13,54 6,22 6,22 -112,20 -66,-1 -156,2 -201,6 -83,8 -83,8 -83,-21 z M 330,696 c 0,-13 3,-37 6,-53 6,-30 6,-30 87,-36 45,-2 133,-17 195,-32 62,-15 115,-25 118,-23 2,3 1,26 -2,51 -5,36 -11,47 -24,47 -10,0 -87,13 -172,30 -229,45 -208,43 -208,16 z m 1110,-23 c -13,-26 -26,-51 -28,-54 -1,-3 59,-9 135,-12 82,-3 158,-12 187,-21 72,-23 83,-21 92,17 5,17 9,36 9,41 0,8 -221,57 -320,71 -50,6 -50,6 -75,-42 z m 1033,33 c -35,-7 -66,-15 -69,-18 -3,-4 3,-23 13,-43 19,-36 19,-36 215,-38 196,-2 196,-2 181,33 -8,19 -17,40 -19,46 -6,13 -140,35 -209,33 -27,0 -78,-6 -112,-13 z m 1371,-38 c 4,-22 9,-44 11,-48 2,-4 33,-10 68,-13 35,-3 119,-19 188,-36 68,-16 142,-33 164,-37 40,-7 40,-7 12,29 -15,20 -27,45 -27,56 0,16 -9,21 -47,26 -27,4 -115,20 -196,36 -81,16 -155,29 -164,29 -13,0 -14,-8 -9,-42 z m 1047,3 c -8,-5 -15,-20 -17,-34 -2,-26 -2,-26 129,-26 73,-1 159,-6 192,-11 33,-5 61,-10 63,-10 1,0 2,20 2,45 0,45 0,45 -177,45 -98,0 -184,-4 -192,-9 z M 2889,641 c -1,-17 -2,-36 -3,-43 -1,-14 204,-64 305,-74 66,-6 66,-6 73,32 3,22 9,49 12,62 6,22 5,22 -92,22 -92,0 -163,7 -256,25 -37,7 -38,7 -39,-24 z"
       id="path2" />
    <path
       d="m 354,539 c 3,-17 6,-39 6,-48 0,-14 19,-19 108,-28 64,-7 157,-27 232,-50 116,-34 134,-37 255,-37 125,-1 134,1 237,37 58,20 144,42 190,48 89,12 281,7 336,-10 31,-9 34,-8 52,22 11,18 20,35 20,39 0,3 -42,17 -92,29 -71,18 -122,24 -213,24 -118,0 -121,-1 -170,-32 -74,-47 -169,-63 -378,-63 -122,0 -177,4 -185,12 -17,17 -326,88 -381,88 -21,0 -23,-3 -17,-31 z m 2163,21 c -20,-4 -39,-9 -41,-11 -2,-2 5,-23 14,-45 18,-42 18,-42 127,-37 134,7 231,-6 398,-52 72,-20 149,-39 171,-42 42,-5 42,-5 53,46 6,29 11,53 11,55 0,2 -39,6 -87,10 -49,3 -126,15 -173,25 -47,10 -128,28 -180,40 -96,21 -219,26 -293,11 z m 1363,-6 c 0,-7 8,-29 17,-49 13,-28 24,-36 52,-40 43,-6 170,-36 301,-70 129,-34 238,-34 351,0 46,14 113,34 148,45 91,28 337,47 421,33 36,-6 68,-8 71,-4 4,3 9,18 13,33 5,20 2,28 -11,32 -24,7 -175,23 -289,31 -92,6 -92,6 -113,-28 -21,-34 -92,-79 -145,-91 -51,-12 -189,-7 -246,10 -30,9 -104,22 -165,30 -60,7 -146,23 -190,34 -147,39 -215,49 -215,34 z"
       id="path3" />
    <path
       d="m 377,398 c 10,-80 7,-78 77,-78 83,0 193,-21 297,-58 193,-67 311,-68 477,-2 128,51 177,60 311,60 107,0 107,0 145,39 38,39 38,39 -15,50 -144,28 -236,22 -359,-24 -97,-36 -136,-44 -242,-55 -123,-12 -272,1 -393,35 -100,28 -261,65 -286,65 -12,0 -15,-8 -12,-32 z m 2216,23 c -24,-4 -44,-9 -47,-12 -2,-2 5,-23 15,-46 18,-43 18,-43 147,-43 150,0 210,-9 352,-55 160,-52 150,-50 150,-22 0,14 3,38 6,54 6,30 6,30 -70,37 -42,4 -122,21 -179,37 -182,55 -271,66 -374,50 z m 2317,-2 c -25,-3 -92,-23 -150,-42 -198,-67 -413,-69 -635,-5 -60,17 -125,34 -144,39 -34,8 -34,8 20,-47 37,-38 64,-56 89,-60 19,-4 76,-21 125,-39 203,-72 345,-72 500,1 93,43 119,47 289,50 168,3 168,3 192,36 45,60 36,64 -141,71 -55,2 -120,0 -145,-4 z"
       id="path4" />
    <path
       d="m 404,229 c 15,-111 -28,-99 350,-99 343,0 499,9 601,35 62,16 185,72 220,100 19,15 15,16 -55,11 -67,-4 -110,-16 -175,-46 -82,-40 -145,-52 -286,-57 -172,-7 -235,2 -400,57 -66,22 -151,43 -191,47 -71,6 -71,6 -64,-48 z m 2224,43 c -15,-6 -14,-14 16,-72 34,-65 34,-65 290,-68 223,-2 256,0 256,13 v 22 c 1,4 -27,13 -62,20 -35,7 -110,29 -168,49 -88,30 -122,36 -210,40 -58,2 -113,1 -122,-4 z m 2262,-13 c -36,-12 -65.726,-24 -75,-29 -6.8709,-4 -41,-18 -80,-31 -62,-21 -88,-24 -230,-24 -88,0 -180,3 -205,7 -45,7 -45,7 0,-13 91,-41 167,-53 345,-53 183,-1 245,10 351,60 60,28 129,80 116,88 -4,2 -42,7 -83,10 -59,5 -87,2 -139,-15 z"
       id="path5" />
  </g>
</svg>
